<svg width="24" height="24" viewBox="0 0 24 24" fill="none" xmlns="http://www.w3.org/2000/svg">
<g clip-path="url(#clip0_1030_1977)">
<path fill-rule="evenodd" clip-rule="evenodd" d="M10.27 7.06998C10.3838 7.13596 10.5154 7.16469 10.6463 7.15214C10.7772 7.13959 10.9009 7.08638 11 6.99998C11.18 6.80998 11.35 6.56998 11.56 6.37998C11.6256 6.3099 11.7083 6.25819 11.8 6.22998C12.182 6.15488 12.5783 6.22628 12.91 6.42998C13.0913 6.51013 13.2506 6.63292 13.3742 6.78788C13.4978 6.94285 13.5822 7.1254 13.62 7.31998C13.6337 7.3989 13.6748 7.47045 13.7361 7.52203C13.7974 7.5736 13.8749 7.60188 13.955 7.60188C14.0351 7.60188 14.1127 7.5736 14.174 7.52203C14.2352 7.47045 14.2764 7.3989 14.29 7.31998C14.283 6.99827 14.1984 6.68302 14.0434 6.40099C13.8885 6.11897 13.6678 5.87849 13.4 5.69998C12.886 5.29151 12.2337 5.09798 11.58 5.15998C11.3594 5.19836 11.1506 5.28736 10.97 5.41998C10.7843 5.55889 10.6164 5.7201 10.47 5.89998C10.4232 5.8435 10.3694 5.79311 10.31 5.74998C10.0399 5.66481 9.75015 5.66481 9.48004 5.74998C9.05723 5.91737 8.66521 6.15393 8.32004 6.44998C8.11262 6.62736 7.96579 6.86509 7.90004 7.12998C7.85599 7.44176 7.85599 7.75819 7.90004 8.06998C7.89204 8.11326 7.89366 8.15778 7.90478 8.20036C7.91591 8.24295 7.93627 8.28257 7.96443 8.3164C7.99258 8.35024 8.02784 8.37746 8.06769 8.39615C8.10754 8.41483 8.15102 8.42452 8.19504 8.42452C8.23906 8.42452 8.28253 8.41483 8.32239 8.39615C8.36224 8.37746 8.3975 8.35024 8.42565 8.3164C8.4538 8.28257 8.47417 8.24295 8.48529 8.20036C8.49642 8.15778 8.49804 8.11326 8.49004 8.06998C8.5041 7.86321 8.54099 7.65863 8.60004 7.45998C8.64158 7.3238 8.73019 7.20683 8.85004 7.12998C9.06553 7.00371 9.29339 6.89984 9.53004 6.81998C9.64169 6.76507 9.76595 6.7409 9.89004 6.74998C9.94004 6.66998 10.17 6.99998 10.27 7.06998Z" fill="black"/>
<path fill-rule="evenodd" clip-rule="evenodd" d="M5.68999 4.21996C5.38227 4.39922 5.14037 4.67268 4.99999 4.99996C4.88563 5.32155 4.82154 5.65884 4.80999 5.99996C4.80014 6.27887 4.86579 6.55526 4.99999 6.79996C5.01693 6.83547 5.04093 6.86716 5.07051 6.8931C5.1001 6.91904 5.13465 6.93869 5.17207 6.95085C5.20949 6.96301 5.24899 6.96743 5.28818 6.96384C5.32736 6.96025 5.3654 6.94872 5.39999 6.92996C5.4355 6.91301 5.46718 6.88902 5.49313 6.85943C5.51907 6.82985 5.53871 6.7953 5.55088 6.75788C5.56304 6.72046 5.56746 6.68095 5.56387 6.64177C5.56027 6.60259 5.54875 6.56455 5.52999 6.52996C5.47415 6.33726 5.47415 6.13267 5.52999 5.93996C5.56949 5.71907 5.63669 5.50404 5.72999 5.29996C5.8606 5.09137 6.06355 4.93827 6.29999 4.86996C6.58882 4.77229 6.88713 4.70525 7.18999 4.66996C7.32599 4.6589 7.45618 4.60994 7.56577 4.52863C7.67536 4.44732 7.75996 4.33692 7.80999 4.20996C7.88999 4.02996 7.80999 3.74996 7.95999 3.46996C8.07945 3.2202 8.24192 2.99341 8.43999 2.79996C8.62908 2.59334 8.85234 2.42082 9.09999 2.28996C9.41687 2.12363 9.75261 1.99605 10.1 1.90996C10.3987 1.83503 10.7113 1.83503 11.01 1.90996C11.2 1.95996 11.53 2.28996 11.79 2.35996C11.886 2.4027 11.9899 2.42478 12.095 2.42478C12.2001 2.42478 12.304 2.4027 12.4 2.35996L13.31 1.72996C13.632 1.65924 13.9688 1.70532 14.26 1.85996C14.58 2.00996 14.89 2.20996 14.9 2.48996C14.8915 2.5388 14.8938 2.5889 14.9068 2.63675C14.9197 2.6846 14.9429 2.72905 14.9748 2.76697C15.0068 2.8049 15.0466 2.83539 15.0915 2.8563C15.1365 2.87722 15.1854 2.88806 15.235 2.88806C15.2846 2.88806 15.3335 2.87722 15.3785 2.8563C15.4234 2.83539 15.4632 2.8049 15.4951 2.76697C15.527 2.72905 15.5503 2.6846 15.5632 2.63675C15.5761 2.5889 15.5785 2.5388 15.57 2.48996C15.5385 2.19999 15.4288 1.92402 15.2527 1.69153C15.0766 1.45904 14.8406 1.27877 14.57 1.16996C14.0899 0.88086 13.5169 0.787751 12.97 0.909962C12.8307 0.955835 12.6967 1.01616 12.57 1.08996C12.36 1.20996 12.18 1.35996 11.97 1.45996C11.88 1.39996 11.76 1.21996 11.67 1.14996C11.5503 1.0517 11.4151 0.973978 11.27 0.919962C10.8799 0.778213 10.4628 0.726923 10.05 0.769962C9.50986 0.850509 8.98838 1.02659 8.50999 1.28996C8.16028 1.47417 7.84281 1.71396 7.56999 1.99996C7.30142 2.29454 7.08499 2.63271 6.92999 2.99996C6.90488 3.22928 6.90488 3.46065 6.92999 3.68996C6.49198 3.80217 6.07378 3.98091 5.68999 4.21996ZM12 1.38996C12 1.43996 12 1.38996 11.91 1.38996C11.82 1.38996 12 1.35996 12 1.38996Z" fill="black"/>
<path fill-rule="evenodd" clip-rule="evenodd" d="M20.66 2.86C20.0739 2.52973 19.3984 2.39323 18.73 2.47C18.6416 2.47516 18.5587 2.51463 18.4989 2.58C18.4391 2.64536 18.4072 2.73147 18.41 2.82C18.4113 2.86422 18.4214 2.90774 18.4398 2.94797C18.4582 2.98819 18.4845 3.02431 18.5172 3.05416C18.5498 3.08401 18.5882 3.107 18.6299 3.12174C18.6716 3.13649 18.7158 3.1427 18.76 3.14C19.1862 3.12416 19.6104 3.20626 20 3.38C20.1451 3.44725 20.2623 3.5628 20.3316 3.7069C20.4009 3.85099 20.418 4.01468 20.38 4.17C20.3519 4.38397 20.2692 4.58713 20.14 4.76C20.0805 4.8427 20.0099 4.91674 19.93 4.98C19.6666 5.01195 19.4199 5.12557 19.2244 5.30492C19.0289 5.48428 18.8945 5.72035 18.84 5.98C18.84 6.2 18.6 6.32 18.42 6.42C18.2002 6.52896 17.9542 6.57401 17.71 6.55C17.5247 6.54657 17.3403 6.5231 17.16 6.48C17.1912 6.36892 17.2113 6.25503 17.22 6.14C17.2474 6.03546 17.2461 5.92545 17.2162 5.8216C17.1863 5.71775 17.1288 5.62391 17.05 5.55C16.9876 5.48318 16.908 5.43475 16.82 5.41C16.37 5.28 16.24 5.41 16 5.18C15.9566 5.14129 15.9224 5.09336 15.8999 5.03972C15.8774 4.98608 15.8672 4.92809 15.87 4.87C15.8792 4.66282 15.9526 4.46363 16.08 4.3C16.2194 4.12369 16.407 3.99168 16.62 3.92H16.93C17.15 4.13 17.33 4.24 17.51 4.01C17.5397 3.9656 17.5555 3.9134 17.5555 3.86C17.5555 3.8066 17.5397 3.7544 17.51 3.71C17.4369 3.60802 17.3531 3.51415 17.26 3.43C17.1349 3.34194 16.9912 3.28378 16.84 3.26C16.6949 3.2298 16.5451 3.2298 16.4 3.26C16.0499 3.3418 15.7306 3.52226 15.48 3.78C15.2193 4.05488 15.0514 4.40464 15 4.78C14.9552 5.07259 15.0193 5.37144 15.18 5.62C15.3816 5.90337 15.6638 6.11944 15.99 6.24C15.9603 6.35139 15.9603 6.46861 15.99 6.58C16.0156 6.71503 16.0688 6.84332 16.1462 6.95688C16.2237 7.07044 16.3237 7.16682 16.44 7.24C16.7939 7.46528 17.1936 7.60877 17.61 7.66C18.0611 7.69387 18.5131 7.60761 18.92 7.41C19.364 7.19075 19.7049 6.80683 19.87 6.34C19.9196 6.2566 19.963 6.1697 20 6.08C20.0326 6.09002 20.0674 6.09002 20.1 6.08C20.467 5.92722 20.7754 5.66086 20.98 5.32C21.1642 5.01592 21.2771 4.674 21.31 4.32C21.354 4.03987 21.3161 3.753 21.2007 3.49395C21.0854 3.2349 20.8976 3.01474 20.66 2.86Z" fill="black"/>
<path fill-rule="evenodd" clip-rule="evenodd" d="M4.78001 3.37999C5.46002 3.23999 6.00001 2.78999 6.00001 2.05999C6.00848 2.01115 6.00617 1.96105 5.99324 1.9132C5.98031 1.86535 5.95708 1.82091 5.92516 1.78298C5.89325 1.74506 5.85343 1.71457 5.80849 1.69365C5.76355 1.67273 5.71458 1.6619 5.66501 1.6619C5.61545 1.6619 5.56648 1.67273 5.52154 1.69365C5.4766 1.71457 5.43678 1.74506 5.40487 1.78298C5.37295 1.82091 5.34972 1.86535 5.33679 1.9132C5.32386 1.96105 5.32155 2.01115 5.33001 2.05999C5.33001 2.36999 5.00001 2.44999 4.71001 2.46999C4.57362 2.48792 4.43493 2.46747 4.30951 2.41095C4.1841 2.35442 4.07692 2.26405 4.00001 2.14999C3.9288 2.04209 3.88282 1.91953 3.86551 1.79141C3.8482 1.66329 3.85999 1.53292 3.90001 1.40999C3.9283 1.25569 4.00133 1.11311 4.11001 0.999992C4.22844 0.910734 4.37572 0.868494 4.52345 0.88142C4.67118 0.894347 4.80889 0.961524 4.91001 1.06999C4.96609 1.12496 5.04149 1.15575 5.12001 1.15575C5.19854 1.15575 5.27394 1.12496 5.33001 1.06999C5.35845 1.04291 5.3811 1.01033 5.39657 0.974228C5.41204 0.93813 5.42001 0.899266 5.42001 0.859992C5.42001 0.820718 5.41204 0.781854 5.39657 0.745755C5.3811 0.709657 5.35845 0.677077 5.33001 0.649992C5.22283 0.472928 5.07492 0.324016 4.89858 0.215642C4.72225 0.107268 4.52258 0.0425652 4.3162 0.0269151C4.10981 0.0112651 3.90267 0.0451204 3.71201 0.125665C3.52135 0.20621 3.35267 0.331115 3.22001 0.489992C2.94123 0.789533 2.769 1.17265 2.73001 1.57999C2.6897 1.98902 2.78454 2.39999 3.00001 2.74999C3.20852 3.01046 3.48567 3.20746 3.80019 3.31878C4.11471 3.4301 4.45408 3.4513 4.78001 3.37999Z" fill="black"/>
<path fill-rule="evenodd" clip-rule="evenodd" d="M20.62 8.91C20.7681 8.59802 20.8 8.24341 20.71 7.91C20.6907 7.82226 20.6384 7.7453 20.564 7.69504C20.4895 7.64478 20.3986 7.62507 20.31 7.64C20.2228 7.6592 20.1467 7.71191 20.0981 7.78674C20.0494 7.86158 20.0321 7.95254 20.05 8.04C20.14 8.54 19.84 8.84 19.43 9.04C18.6545 9.38406 17.8377 9.62608 17 9.76C15.8582 9.97304 14.7011 10.0934 13.54 10.12C12.3744 10.1898 11.2056 10.1898 10.04 10.12C8.5003 10.0712 6.98371 9.73187 5.56998 9.12C5.37344 9.02423 5.19696 8.89187 5.04998 8.73C4.92296 8.59505 4.85463 8.41525 4.85998 8.23C4.86269 8.1911 4.85753 8.15205 4.8448 8.11518C4.83207 8.07832 4.81203 8.04441 4.7859 8.01547C4.75976 7.98653 4.72805 7.96316 4.69267 7.94675C4.65729 7.93035 4.61896 7.92125 4.57998 7.92C4.5416 7.91585 4.50278 7.91967 4.46595 7.93124C4.42911 7.94281 4.39507 7.96188 4.36596 7.98723C4.33685 8.01259 4.31329 8.04369 4.29678 8.07858C4.28026 8.11348 4.27114 8.15141 4.26998 8.19C4.23912 8.46163 4.29889 8.73585 4.43998 8.97C4.6315 9.28524 4.89988 9.54673 5.21998 9.73C7.04781 10.7083 9.07771 11.2492 11.15 11.31H11.92C11.38 11.74 10.76 12.31 10.12 12.84L9.71999 13.23C8.99998 12.5 8.42998 11.9 8.04998 11.46C7.99814 11.4113 7.93069 11.3826 7.85967 11.3791C7.78864 11.3755 7.71865 11.3973 7.6622 11.4405C7.60574 11.4838 7.56648 11.5457 7.55142 11.6152C7.53636 11.6847 7.54649 11.7573 7.57998 11.82C7.91998 12.31 8.44998 13 9.10998 13.82L8.99998 13.94C8.60998 14.33 8.23998 14.74 7.87998 15.14C7.51998 15.54 7.33998 15.76 7.08998 16.06C6.42998 15.45 5.87998 14.92 5.54998 14.54C5.49924 14.485 5.43299 14.4466 5.35998 14.43C5.14998 13.25 4.95998 12.04 4.82998 10.88C4.81997 10.8021 4.7798 10.7312 4.71809 10.6826C4.65639 10.634 4.57808 10.6115 4.49998 10.62C4.46182 10.6237 4.42478 10.635 4.39101 10.6532C4.35723 10.6713 4.32739 10.696 4.30321 10.7257C4.27903 10.7555 4.26099 10.7898 4.25014 10.8265C4.23929 10.8633 4.23583 10.9019 4.23998 10.94C4.4639 13.837 4.91191 16.7122 5.57998 19.54C5.79518 20.5467 6.13094 21.5237 6.57998 22.45C6.74412 22.7782 7.00621 23.0473 7.32998 23.22C9.41962 23.9092 11.6294 24.1578 13.82 23.95C15.0037 23.887 16.1722 23.6547 17.29 23.26C17.6521 23.1296 17.9731 22.9053 18.22 22.61C18.8843 21.3631 19.3243 20.0092 19.52 18.61C20.21 15.09 20.61 10.46 20.79 9.27C20.8031 9.19974 20.7937 9.12714 20.7632 9.06252C20.7327 8.99789 20.6826 8.94452 20.62 8.91ZM17.24 10.68C18.2096 10.4727 19.1409 10.1151 20 9.62C19.82 10.75 19.53 12.99 19.13 15.29L18.6 15.69L17.37 14.31L16.54 13.41C17.2682 12.6884 18.0325 12.0042 18.83 11.36C18.8627 11.3388 18.8909 11.3113 18.9127 11.279C18.9346 11.2467 18.9497 11.2103 18.9572 11.172C18.9646 11.1337 18.9643 11.0943 18.9562 11.0562C18.9481 11.0181 18.9324 10.9819 18.91 10.95C18.8879 10.9169 18.8594 10.8886 18.8262 10.8666C18.793 10.8446 18.7558 10.8295 18.7167 10.8221C18.6776 10.8146 18.6375 10.815 18.5985 10.8232C18.5596 10.8315 18.5227 10.8474 18.49 10.87C17.86 11.27 16.95 11.93 15.92 12.75C15.37 12.21 14.81 11.69 14.28 11.2C15.279 11.1066 16.2689 10.9327 17.24 10.68ZM12.5 21.39L12.05 21C11.56 20.54 11 19.95 10.4 19.33C10.51 19.23 10.61 19.12 10.72 19.01L12.42 17.39C12.91 17.86 13.42 18.33 13.9 18.77L14.48 19.28L13.67 20.1C13.26 20.52 12.87 21 12.5 21.39ZM14.13 17.47L13.24 16.59L13.96 15.91L15.75 14.18L15.8 14.24C16.09 14.55 16.39 14.84 16.69 15.11C17.13 15.53 17.56 15.9 17.94 16.22C17.37 16.66 16.77 17.14 16.18 17.66C15.85 17.94 15.53 18.25 15.18 18.55C14.86 18.2 14.5 17.83 14.13 17.47ZM13.05 11.27H13.42C13.9 11.93 14.42 12.64 14.97 13.33L15.09 13.46L14.03 14.36C13.5 14.82 12.96 15.31 12.44 15.82L12.09 15.49C11.55 14.96 11.02 14.49 10.52 13.98C11.51 12.93 12.4 11.93 13.05 11.27ZM8.68998 15.8L9.83998 14.65L10.84 15.73C11.11 16.02 11.38 16.31 11.67 16.59L10.58 17.69L9.72998 18.61C9.43998 18.31 9.13999 18.02 8.83998 17.72L8.17998 17.08L7.78998 16.72L8.68998 15.8ZM6.45998 16.8C6.26998 17.03 6.10998 17.25 5.94998 17.46C5.80998 16.87 5.67998 16.27 5.55998 15.64C5.80998 16 6.10998 16.37 6.45998 16.79V16.8ZM6.16998 18.35C6.39998 18.09 6.68998 17.79 7.01998 17.46C7.11998 17.56 7.19998 17.67 7.29998 17.78C7.63998 18.15 7.99998 18.53 8.37998 18.9C8.56998 19.09 8.76999 19.26 8.96999 19.44C8.28999 20.23 7.69998 20.95 7.24998 21.56C6.79347 20.5215 6.43199 19.4437 6.16998 18.34V18.35ZM7.63998 22.2C8.13998 21.6 8.83998 20.87 9.63999 20.06C10.394 20.7235 11.1817 21.3476 12 21.93L11.23 22.85C10.0155 22.8252 8.81174 22.6162 7.65998 22.23L7.63998 22.2ZM16.21 22.45C15.0522 22.7186 13.8685 22.8594 12.68 22.87H12.27C12.95 22.21 13.72 21.5 14.51 20.76L15.34 19.98C16.16 20.66 16.91 21.24 17.51 21.66C17.45 21.77 17.38 21.88 17.32 21.97C16.9988 22.2234 16.6154 22.3857 16.21 22.44V22.45ZM17.81 21C17.33 20.6 16.81 20.08 16.15 19.49C16.1084 19.4385 16.0615 19.3916 16.01 19.35L16.51 18.87C17.24 18.14 17.94 17.41 18.59 16.74L18.85 16.93C18.75 17.43 18.65 17.93 18.55 18.39C18.3645 19.2762 18.1173 20.1483 17.81 21Z" fill="black"/>
</g>
<defs>
<clipPath id="clip0_1030_1977">
<rect width="24" height="24" fill="white"/>
</clipPath>
</defs>
</svg>
