<svg width="24" height="24" viewBox="0 0 24 24" fill="none" xmlns="http://www.w3.org/2000/svg">
<g clip-path="url(#clip0_1030_2133)">
<path fill-rule="evenodd" clip-rule="evenodd" d="M5.24999 7.90994C5.25133 7.85658 5.24197 7.80349 5.22246 7.7538C5.20296 7.70411 5.17371 7.65882 5.13643 7.62061C5.09915 7.58241 5.0546 7.55204 5.00541 7.53132C4.95622 7.5106 4.90337 7.49993 4.84999 7.49994C4.36999 7.40994 3.84999 7.28994 3.38999 7.22994C3.26685 7.22026 3.14314 7.22026 3.01999 7.22994C2.81681 7.21872 2.61317 7.21872 2.40999 7.22994C2.20093 7.2653 1.99396 7.31204 1.78999 7.36994H1.58999C1.97999 6.81994 2.44999 6.15994 2.58999 6.05994C2.66368 6.00415 2.71308 5.92216 2.72797 5.83094C2.74287 5.73972 2.72211 5.64627 2.66999 5.56994C2.64333 5.5335 2.60967 5.50274 2.57098 5.47944C2.53229 5.45615 2.48936 5.4408 2.44467 5.43428C2.39999 5.42777 2.35445 5.43022 2.31073 5.44149C2.267 5.45276 2.22596 5.47264 2.18999 5.49994C1.57748 5.95316 1.0023 6.45476 0.469992 6.99994C0.336051 7.131 0.215459 7.27504 0.109992 7.42994C0.0178474 7.56809 -0.0179333 7.73626 0.00999185 7.89994C0.0293792 8.00391 0.0702505 8.10268 0.129992 8.18994C0.28841 8.40227 0.465807 8.59975 0.659992 8.77994C1.16999 9.26994 1.91999 9.84994 2.06999 9.96994C2.09795 9.99867 2.13138 10.0215 2.1683 10.0371C2.20523 10.0527 2.24491 10.0607 2.28499 10.0607C2.32508 10.0607 2.36475 10.0527 2.40168 10.0371C2.43861 10.0215 2.47204 9.99867 2.49999 9.96994C2.53003 9.94276 2.55403 9.90958 2.57046 9.87255C2.58689 9.83552 2.59538 9.79546 2.59538 9.75494C2.59538 9.71443 2.58689 9.67437 2.57046 9.63734C2.55403 9.60031 2.53003 9.56713 2.49999 9.53994C2.40999 9.39994 2.03999 8.81994 1.66999 8.29994H1.75999C1.95912 8.36335 2.16315 8.41017 2.36999 8.43994C2.57299 8.45655 2.777 8.45655 2.97999 8.43994H3.34999C3.82999 8.37994 4.34999 8.26994 4.80999 8.18994C4.9047 8.20362 5.00117 8.18289 5.0819 8.13151C5.16263 8.08014 5.22227 8.00153 5.24999 7.90994Z" fill="black"/>
<path fill-rule="evenodd" clip-rule="evenodd" d="M23.89 7.39995C23.783 7.25549 23.6625 7.12155 23.53 6.99995C23.0097 6.46023 22.448 5.96204 21.85 5.50996C21.8132 5.48369 21.7717 5.46493 21.7276 5.45473C21.6836 5.44454 21.638 5.44311 21.5935 5.45054C21.5489 5.45797 21.5062 5.47411 21.4679 5.49803C21.4295 5.52195 21.3963 5.55318 21.37 5.58995C21.3438 5.62673 21.325 5.66831 21.3148 5.71233C21.3046 5.75635 21.3032 5.80195 21.3106 5.84652C21.318 5.8911 21.3342 5.93377 21.3581 5.9721C21.382 6.01044 21.4132 6.04369 21.45 6.06995C21.55 6.16995 22.03 6.84995 22.45 7.39995L22.19 7.33995C22.1 7.33995 21.9 7.24995 21.58 7.20995C21.3803 7.19371 21.1797 7.19371 20.98 7.20995C20.8569 7.20027 20.7332 7.20027 20.61 7.20995C20.13 7.20995 19.61 7.38995 19.16 7.46995C19.0548 7.47509 18.9556 7.52055 18.883 7.59689C18.8103 7.67323 18.7699 7.77459 18.77 7.87995C18.77 7.93202 18.7804 7.98357 18.8006 8.03155C18.8209 8.07953 18.8505 8.12297 18.8878 8.15932C18.925 8.19567 18.9692 8.22419 19.0177 8.24319C19.0662 8.26219 19.118 8.27129 19.17 8.26996C19.65 8.34996 20.17 8.46996 20.62 8.51996H21C21.203 8.53656 21.407 8.53656 21.61 8.51996C21.8134 8.48935 22.0141 8.44253 22.21 8.37995H22.36C21.98 8.90995 21.6 9.49996 21.51 9.63996C21.48 9.66714 21.456 9.70032 21.4396 9.73735C21.4231 9.77438 21.4146 9.81444 21.4146 9.85495C21.4146 9.89547 21.4231 9.93553 21.4396 9.97256C21.456 10.0096 21.48 10.0428 21.51 10.07C21.538 10.0987 21.5714 10.1215 21.6083 10.1371C21.6453 10.1527 21.6849 10.1607 21.725 10.1607C21.7651 10.1607 21.8048 10.1527 21.8417 10.1371C21.8786 10.1215 21.9121 10.0987 21.94 10.07C22.09 9.93995 22.84 9.36995 23.36 8.87995C23.5489 8.69754 23.7228 8.50024 23.88 8.28995C23.9658 8.16729 24.0081 8.01943 24 7.86995C24.025 7.70498 23.9857 7.53669 23.89 7.39995Z" fill="black"/>
<path fill-rule="evenodd" clip-rule="evenodd" d="M19 14.12C18.6798 14.0788 18.3545 14.113 18.05 14.22C17.9729 13.9756 17.8618 13.7433 17.72 13.53C17.5489 13.2749 17.2943 13.0875 17 13C16.7062 12.9251 16.4018 12.9015 16.1 12.93L15.79 12.99C16.16 12.08 16.7 10.7 17.13 9.49997C17.43 8.66997 17.67 7.92997 17.78 7.49997C17.9584 6.92098 18.0329 6.31495 18 5.70997C17.9507 5.22766 17.7392 4.77635 17.4 4.42997C16.8258 3.8267 16.0777 3.41768 15.26 3.25997C14.8327 3.20803 14.3992 3.25898 13.9957 3.40858C13.5921 3.55818 13.2301 3.80208 12.94 4.11997C12.6504 4.43665 12.4322 4.81175 12.3 5.21997C12.0695 4.77947 11.7239 4.40969 11.3 4.14997C10.663 3.80925 9.92441 3.70982 9.21998 3.86997C8.50074 4.00383 7.86016 4.40823 7.42998 4.99997C7.06436 5.54134 6.86295 6.17683 6.84998 6.82997C6.83494 7.43049 6.92288 8.02914 7.10998 8.59997L7.64998 10.89L8.16998 13.89C8.16998 13.96 8.22998 14.32 8.27998 14.45C8.29628 14.5276 8.33918 14.597 8.40127 14.6463C8.46335 14.6956 8.54071 14.7217 8.61998 14.72C9.06998 14.72 8.61998 12.13 8.48998 10.88C8.48998 10.71 8.42998 10.3 8.36998 9.87997C8.30998 9.45997 8.14998 8.60997 8.08998 8.37997C7.97854 7.90176 7.94811 7.40825 7.99998 6.91997C8.01697 6.48693 8.14806 6.06607 8.37998 5.69997C8.61432 5.34602 8.96998 5.08995 9.37998 4.97997C9.79584 4.87768 10.2344 4.92365 10.62 5.10997C10.887 5.26081 11.1109 5.47775 11.27 5.73997C11.444 6.02792 11.5595 6.34734 11.61 6.67997C11.7331 7.57206 11.8098 8.46993 11.84 9.36997C11.93 11.37 11.91 13.47 11.91 13.47C11.9072 13.5611 11.9402 13.6498 12.0018 13.717C12.0635 13.7843 12.1489 13.8248 12.24 13.83C12.2858 13.8342 12.3319 13.8287 12.3755 13.814C12.4191 13.7993 12.4591 13.7757 12.493 13.7446C12.5269 13.7135 12.5539 13.6757 12.5723 13.6336C12.5907 13.5915 12.6002 13.5459 12.6 13.5C12.6 13.5 12.74 11.4 12.75 9.34997C12.7695 8.44234 12.7395 7.53432 12.66 6.62997C12.66 6.49997 12.72 6.35997 12.76 6.23997C12.8835 5.70489 13.1456 5.21171 13.52 4.80997C13.7228 4.62134 13.9662 4.48177 14.2315 4.40202C14.4967 4.32227 14.7768 4.30446 15.05 4.34997C15.616 4.49081 16.1255 4.80136 16.51 5.23997C16.7139 5.4639 16.8248 5.75715 16.82 6.05997C16.7998 6.4676 16.7429 6.87257 16.65 7.26997C16.4804 8.14114 16.2634 9.00242 16 9.84997C16 9.93997 14 14.14 15.06 14.22C15.64 14.22 15.06 13.71 16.16 13.74C16.3553 13.7397 16.5488 13.777 16.73 13.85C16.84 13.9 16.87 14.02 16.92 14.14C16.9936 14.3043 17.0376 14.4803 17.05 14.66C17.0575 14.861 17.0776 15.0614 17.11 15.26C17.1562 15.3829 17.2402 15.4879 17.35 15.56C17.4469 15.6171 17.5574 15.6473 17.67 15.6473C17.7825 15.6473 17.893 15.6171 17.99 15.56C18.0969 15.4548 18.2261 15.375 18.3681 15.3265C18.51 15.2781 18.661 15.2622 18.81 15.28C18.9355 15.2958 19.0537 15.3479 19.15 15.43C19.2 15.48 19.2 15.58 19.22 15.69C19.2718 15.977 19.2953 16.2684 19.29 16.56C19.2885 17.0922 19.2484 17.6236 19.17 18.15C19.109 18.5831 19.0154 19.011 18.89 19.43C18.8145 19.6906 18.7105 19.9421 18.58 20.18C18.5511 20.2162 18.5299 20.258 18.5177 20.3027C18.5055 20.3474 18.5026 20.3942 18.5092 20.4401C18.5157 20.486 18.5316 20.53 18.5558 20.5696C18.58 20.6091 18.6121 20.6433 18.65 20.67C18.6866 20.6968 18.7281 20.716 18.7722 20.7265C18.8163 20.737 18.8621 20.7385 18.9068 20.7311C18.9516 20.7236 18.9943 20.7073 19.0327 20.6831C19.071 20.6588 19.1041 20.6272 19.13 20.59C19.3343 20.3178 19.4993 20.0182 19.62 19.7C19.8028 19.2547 19.9531 18.7969 20.07 18.33C20.29 17.5317 20.4044 16.708 20.41 15.88C20.4222 15.3904 20.247 14.9146 19.92 14.55C19.6646 14.3157 19.3435 14.1656 19 14.12Z" fill="black"/>
<path fill-rule="evenodd" clip-rule="evenodd" d="M7.44 19.23C6.96453 18.6059 6.55249 17.9359 6.21 17.23C5.8878 16.4929 5.68201 15.7102 5.6 14.91C5.55573 14.6953 5.5578 14.4736 5.60609 14.2597C5.65437 14.0459 5.74776 13.8448 5.88 13.67C6.03655 13.4929 6.25466 13.382 6.49 13.36C6.76265 13.3492 7.03287 13.415 7.27 13.55C7.33927 13.5912 7.42187 13.6038 7.50027 13.5851C7.57868 13.5665 7.64673 13.518 7.69 13.45C7.71173 13.416 7.72639 13.3781 7.73313 13.3384C7.73986 13.2986 7.73852 13.2579 7.72918 13.2188C7.71985 13.1796 7.70272 13.1426 7.6788 13.1102C7.65489 13.0778 7.62469 13.0505 7.59 13.03C7.27062 12.7884 6.8891 12.6428 6.49 12.61C6.04854 12.5801 5.61229 12.7196 5.27 13C4.98192 13.2423 4.75685 13.5508 4.61404 13.8991C4.47124 14.2474 4.41495 14.6252 4.45 15C4.52873 15.9454 4.78308 16.8678 5.2 17.72C5.64474 18.4394 6.1643 19.1098 6.75 19.72C6.92218 19.9649 7.04762 20.2395 7.12 20.53C7.12841 20.5754 7.1457 20.6186 7.17089 20.6573C7.19607 20.6959 7.22866 20.7292 7.26676 20.7553C7.30487 20.7813 7.34774 20.7995 7.39292 20.8089C7.4381 20.8183 7.48468 20.8187 7.53 20.81C7.57471 20.8029 7.61748 20.7867 7.65566 20.7624C7.69385 20.7381 7.72662 20.7062 7.75194 20.6687C7.77726 20.6312 7.7946 20.5888 7.80287 20.5443C7.81114 20.4998 7.81016 20.4541 7.8 20.41C7.76603 19.9954 7.64325 19.5929 7.44 19.23Z" fill="black"/>
</g>
<defs>
<clipPath id="clip0_1030_2133">
<rect width="24" height="24" fill="white"/>
</clipPath>
</defs>
</svg>
