<svg width="24" height="24" viewBox="0 0 24 24" fill="none" xmlns="http://www.w3.org/2000/svg">
<g clip-path="url(#clip0_1032_3230)">
<path fill-rule="evenodd" clip-rule="evenodd" d="M24 17.35C24 16.67 24.06 15.68 23.42 15.35C22.13 14.64 18.9 14.6 17.69 15.35C17.02 15.78 17.14 16.79 16.95 17.35C16.88 17.56 8.76999 17.71 7.27999 17.27C6.35999 17 6.99999 16 5.99999 15.42C5.48999 15.12 1.25999 15.42 0.839986 15.5C-0.840014 15.93 0.429986 20.5 0.979986 22.12C0.986298 22.1649 1.00238 22.2078 1.02709 22.2458C1.0518 22.2838 1.08455 22.316 1.12302 22.3399C1.16149 22.3639 1.20475 22.3791 1.24975 22.3846C1.29475 22.39 1.3404 22.3855 1.38347 22.3714C1.42655 22.3573 1.466 22.3339 1.49906 22.3029C1.53212 22.2719 1.55798 22.234 1.57481 22.1919C1.59164 22.1498 1.59903 22.1046 1.59647 22.0593C1.59391 22.0141 1.58146 21.9699 1.55999 21.93C1.16999 20.71 0.449986 17.73 0.809986 16.54C0.809986 16.39 0.899986 16.27 1.01999 16.24C2.43351 16.123 3.85306 16.0962 5.26999 16.16C5.40999 16.16 5.55999 16.25 5.58999 16.21C5.98999 16.54 5.58999 17.75 6.97999 18.21C8.36999 18.67 16.52 18.89 17.47 18.4C18.06 18.09 18.13 17.4 18.22 16.75C18.22 16.59 18.43 16.4 18.34 16.32C19.0362 16.0342 19.7894 15.9144 20.54 15.97C21.2752 16.0224 22.0065 16.1192 22.73 16.26C23 16.1 22.81 17.26 22.83 17.45C22.89 18.24 22.71 21.45 22.08 21.99C21.45 22.53 15.08 22.73 14.2 22.75C1.88999 23.05 1.52999 22.25 1.40999 22.92C1.40137 22.9647 1.40183 23.0107 1.41134 23.0553C1.42084 23.0998 1.4392 23.142 1.46531 23.1793C1.49143 23.2166 1.52477 23.2483 1.56337 23.2724C1.60196 23.2966 1.64502 23.3128 1.68999 23.32C2.44999 23.47 20.88 24.32 22.76 22.85C23.84 22 24.07 18.56 24 17.35Z" fill="black"/>
<path fill-rule="evenodd" clip-rule="evenodd" d="M6.79998 10.67C7.06998 12.15 10.36 15.74 11.97 15.97C13.58 16.2 16.61 11.55 16.53 10.59C16.45 9.63001 15.35 9.65001 14.47 9.40001C14.3729 9.35574 14.2726 9.31897 14.17 9.29001C14.17 9.21001 14 6.90001 14 7.00001C13.86 5.47001 13 2.16001 12.94 0.670012C12.94 0.578512 12.9036 0.49076 12.8389 0.42606C12.7742 0.36136 12.6865 0.325012 12.595 0.325012C12.5035 0.325012 12.4157 0.36136 12.351 0.42606C12.2863 0.49076 12.25 0.578512 12.25 0.670012C12.25 2.26001 13.02 5.52001 13.11 7.07001C13.1847 7.82101 13.2214 8.57531 13.22 9.33001C13.29 10.24 13.85 10.2 14.22 10.33C14.59 10.46 15.22 10.52 15.5 10.63C15.0281 11.6787 14.4047 12.6524 13.65 13.52C13.41 13.81 12.49 14.83 12.16 14.79C10.96 14.62 8.15998 11.37 7.98998 10.59L10.18 10.11C10.4464 9.94648 10.637 9.68394 10.71 9.38001C10.88 8.87001 11.71 0.640012 11.71 0.570012C11.62 0.160012 11.23 0.230012 11.08 0.490012C11.0062 0.654833 10.946 0.825399 10.9 1.00001C10.22 6.34001 9.95998 8.40001 9.89998 8.78001C9.89998 8.97001 9.63998 9.14001 9.70998 9.25001C8.78998 9.54001 6.54998 9.27001 6.79998 10.67Z" fill="black"/>
<path fill-rule="evenodd" clip-rule="evenodd" d="M0.599973 14.83C0.63915 14.8562 0.683476 14.8737 0.72997 14.8813C0.776464 14.8889 0.824047 14.8864 0.869521 14.8741C0.914995 14.8618 0.957304 14.8399 0.993605 14.8099C1.0299 14.7798 1.05935 14.7424 1.07997 14.7C1.24915 14.3957 1.39297 14.078 1.50997 13.75C2.67997 11.4 2.50997 11.93 2.92997 10.94C3.19797 10.1496 3.63864 9.42884 4.21997 8.83001C5.27274 8.43896 6.37201 8.18683 7.48997 8.08001C7.58147 8.08001 7.66922 8.04367 7.73392 7.97897C7.79862 7.91427 7.83497 7.82651 7.83497 7.73501C7.83497 7.64351 7.79862 7.55576 7.73392 7.49106C7.66922 7.42636 7.58147 7.39001 7.48997 7.39001C6.1646 7.36805 4.84534 7.57439 3.58997 8.00001C2.30997 8.86001 1.78997 10.59 0.819973 13.53C0.689973 13.84 0.319973 14.57 0.599973 14.83Z" fill="black"/>
<path fill-rule="evenodd" clip-rule="evenodd" d="M18 7.71002C18.6075 7.7328 19.205 7.87199 19.76 8.12002C20.44 8.68002 21.98 13.33 22.21 14.45C22.2376 14.5282 22.292 14.594 22.3636 14.6357C22.4351 14.6775 22.5192 14.6925 22.6008 14.6781C22.6824 14.6637 22.7563 14.6208 22.8092 14.5571C22.8622 14.4933 22.8908 14.4129 22.89 14.33C22.68 12.56 21.89 8.27002 20.42 7.25002C19.6779 6.90323 18.8505 6.78155 18.04 6.90002C17.9 6.90002 15.34 6.90002 15.3 7.33002C15.26 7.76002 16.55 7.54002 18 7.71002Z" fill="black"/>
</g>
<defs>
<clipPath id="clip0_1032_3230">
<rect width="24" height="24" fill="white"/>
</clipPath>
</defs>
</svg>
