<svg width="24" height="24" viewBox="0 0 24 24" fill="none" xmlns="http://www.w3.org/2000/svg">
<g clip-path="url(#clip0_3011_1459)">
<path fill-rule="evenodd" clip-rule="evenodd" d="M17.81 19.91L19.21 19C19.6939 18.6753 20.155 18.3178 20.59 17.93C21.034 17.5489 21.4548 17.1415 21.85 16.71C22.0531 16.5232 22.2467 16.3263 22.43 16.12C22.82 15.66 22.71 15.71 22.52 15.52C22.3579 15.3358 22.1842 15.1621 22 15L19.5 12.41L18.71 11.66C18.6198 11.66 18.5333 11.6242 18.4696 11.5604C18.4058 11.4967 18.37 11.4102 18.37 11.32C18.37 11.2298 18.4058 11.1434 18.4696 11.0796C18.5333 11.0158 18.6198 10.98 18.71 10.98C18.8622 10.9854 19.0103 11.0302 19.14 11.11C19.4592 11.3146 19.7633 11.5419 20.05 11.79L22.85 14.08C23.2064 14.336 23.5202 14.6464 23.78 15C23.9546 15.2618 24.0292 15.5778 23.99 15.89C23.935 16.1529 23.826 16.4015 23.67 16.62C23.4014 16.9834 23.0965 17.3185 22.76 17.62C22.2992 18.0496 21.8151 18.4535 21.31 18.83C20.796 19.1986 20.2582 19.5326 19.7 19.83C17.61 20.98 17.78 21.21 17.47 20.9C17.392 20.8291 17.342 20.7326 17.3292 20.628C17.3163 20.5234 17.3415 20.4177 17.4 20.33C17.5153 20.1706 17.6534 20.0291 17.81 19.91Z" fill="black"/>
<path fill-rule="evenodd" clip-rule="evenodd" d="M0.299976 7.69C0.643098 6.67756 1.24096 5.77044 2.03607 5.0559C2.83118 4.34135 3.79677 3.84342 4.83998 3.61C5.66342 3.42722 6.49889 3.30357 7.33998 3.24C8.91998 3.09 10.64 3 11 3C11.1034 3 11.2026 3.04109 11.2758 3.11423C11.3489 3.18737 11.39 3.28657 11.39 3.39C11.3914 3.44159 11.3822 3.49292 11.3631 3.54086C11.344 3.5888 11.3153 3.63234 11.2788 3.66884C11.2423 3.70533 11.1988 3.73401 11.1508 3.75312C11.1029 3.77223 11.0516 3.78138 11 3.78C10.61 3.78 8.93998 3.92 7.39998 4.12C6.61839 4.20977 5.84343 4.35006 5.07998 4.54C4.23086 4.7633 3.45194 5.19757 2.81557 5.80247C2.1792 6.40737 1.70602 7.16328 1.43998 8C1.1982 8.853 1.16279 9.75128 1.33667 10.6207C1.51055 11.49 1.88873 12.3056 2.43998 13C2.9408 13.6137 3.5685 14.1118 4.27998 14.46C5.02711 14.8368 5.8113 15.135 6.61998 15.35C7.79977 15.6895 9.00813 15.9205 10.23 16.04C11.4657 16.1655 12.7087 16.2056 13.95 16.16C15 16.16 18.37 15.77 19.79 15.59L20.36 15.51C20.4466 15.475 20.5434 15.475 20.63 15.51C20.63 15.51 20.95 16.07 20.48 16.17L19.88 16.27C18.45 16.51 15.06 17.02 13.99 17.1C12.706 17.2063 11.4162 17.223 10.13 17.15C8.83151 17.0695 7.54296 16.872 6.27998 16.56C5.19046 16.294 4.14361 15.8766 3.16998 15.32C2.48543 14.9225 1.88436 14.3961 1.39998 13.77C0.74807 12.9162 0.308377 11.9197 0.117128 10.8626C-0.0741199 9.80551 -0.0114491 8.71811 0.299976 7.69Z" fill="black"/>
</g>
<defs>
<clipPath id="clip0_3011_1459">
<rect width="24" height="24" fill="white" transform="matrix(-1 0 0 1 24 0)"/>
</clipPath>
</defs>
</svg>
