<svg width="24" height="24" viewBox="0 0 24 24" fill="none" xmlns="http://www.w3.org/2000/svg">
<g clip-path="url(#clip0_1048_7036)">
<path d="M13.94 3.40997C13.9098 3.26329 13.8446 3.12606 13.75 3.00997C13.4771 2.72532 13.1312 2.52121 12.75 2.41997C12.1818 2.27374 11.5967 2.20314 11.01 2.20997C10.8353 1.94418 10.6231 1.70504 10.38 1.49997C9.93941 1.12981 9.38538 0.921609 8.81003 0.909973C8.37822 0.933739 7.96058 1.07231 7.60021 1.31138C7.23984 1.55046 6.9498 1.88137 6.76003 2.26997C6.61363 2.53191 6.49947 2.81061 6.42003 3.09997C6.35316 3.35932 6.30636 3.62344 6.28003 3.88997C5.97307 3.96457 5.68186 4.09325 5.42003 4.26997C5.09515 4.50875 4.83973 4.82976 4.68003 5.19997C4.51212 5.60986 4.38484 6.03523 4.30003 6.46997C4.02433 6.54187 3.75373 6.63207 3.49003 6.73997C3.45368 6.74903 3.41962 6.76554 3.39 6.78847C3.36038 6.8114 3.33586 6.84024 3.31799 6.87315C3.30012 6.90607 3.2893 6.94235 3.28621 6.97967C3.28311 7.017 3.28782 7.05456 3.30003 7.08997C3.3105 7.12606 3.32744 7.15995 3.35003 7.18997C3.29417 7.18655 3.23869 7.20125 3.19185 7.23187C3.14501 7.2625 3.1093 7.30743 3.09003 7.35997C2.43961 8.95471 1.89836 10.5918 1.47003 12.26C1.01645 13.905 0.655878 15.5744 0.390028 17.26C0.310028 17.83 0.0700279 18.57 0.0100279 19.26C-0.0313754 19.6224 -0.000790179 19.9894 0.100028 20.34C0.430028 21.39 1.84003 22.21 3.54003 22.65C5.07348 23.0444 6.66375 23.1696 8.24003 23.02C8.75217 22.9988 9.24208 22.805 9.63003 22.47C9.98291 22.0158 10.2413 21.4956 10.39 20.94C10.62 20.17 10.74 19.33 10.88 18.67C11.21 17.17 11.76 14.79 12.19 12.56C12.4754 11.1847 12.6658 9.79139 12.76 8.38997C12.7627 8.34713 12.7568 8.30418 12.7425 8.26368C12.7283 8.22318 12.7061 8.18596 12.6771 8.15423C12.6482 8.12251 12.6132 8.09693 12.5742 8.07902C12.5352 8.06111 12.4929 8.05123 12.45 8.04997C12.408 8.04864 12.3661 8.0556 12.3268 8.07046C12.2874 8.08532 12.2514 8.10779 12.2208 8.13658C12.1901 8.16537 12.1655 8.19992 12.1482 8.23825C12.1309 8.27658 12.1213 8.31794 12.12 8.35997C11.9874 9.72408 11.7602 11.0773 11.44 12.41C11 14.62 10.32 17 10 18.46C9.85003 19.09 9.71003 19.9 9.47003 20.63C9.34919 21.0507 9.14892 21.4445 8.88003 21.79C8.78003 21.9 8.51003 21.92 8.16003 21.96C6.71666 22.0734 5.26444 21.9518 3.86003 21.6C3.17682 21.4419 2.52003 21.1859 1.91003 20.84C1.54458 20.6677 1.25346 20.3695 1.09003 20C1.02352 19.7003 1.02352 19.3897 1.09003 19.09C1.16003 18.5 1.32003 17.89 1.37003 17.4C1.56749 15.7185 1.85794 14.0493 2.24003 12.4C2.58808 10.7644 3.04578 9.1541 3.61003 7.57997C3.6365 7.53624 3.6505 7.48609 3.6505 7.43497C3.6505 7.38385 3.6365 7.33371 3.61003 7.28997H3.69003C4.72472 7.10008 5.78534 7.10008 6.82003 7.28997C7.44003 7.37997 8.06003 7.48997 8.69003 7.61997C9.63003 7.82997 10.59 8.05997 11.55 8.30997C11.6309 8.33502 11.7184 8.32698 11.7934 8.28762C11.8684 8.24825 11.9247 8.18078 11.95 8.09997C11.964 8.06062 11.97 8.01885 11.9674 7.97716C11.9649 7.93547 11.9539 7.89472 11.9353 7.85736C11.9166 7.82 11.8905 7.7868 11.8587 7.75975C11.8269 7.73271 11.7899 7.71237 11.75 7.69997L11.53 7.60997C11.7289 6.85404 11.6248 6.05035 11.24 5.36997C11.2643 5.41096 11.2976 5.44581 11.3375 5.47183C11.3774 5.49784 11.4227 5.51432 11.47 5.51997C12.1212 5.75266 12.8367 5.72762 13.47 5.44997C13.6728 5.27203 13.8276 5.046 13.9202 4.79264C14.0128 4.53928 14.0402 4.26671 14 3.99997C14.0012 3.80173 13.9811 3.60393 13.94 3.40997ZM7.44003 2.71997C7.66997 2.42423 7.97834 2.19901 8.33003 2.06997C8.57418 1.99135 8.83426 1.9758 9.08604 2.02476C9.33782 2.07371 9.57312 2.18559 9.77003 2.34997C10.1669 2.6291 10.4732 3.01853 10.6509 3.47001C10.8287 3.92149 10.8701 4.41519 10.77 4.88997C10.2476 4.47468 9.64498 4.17169 9.00003 3.99997C8.32265 3.81615 7.62147 3.73524 6.92003 3.75997C6.95492 3.60535 7.00517 3.4546 7.07003 3.30997C7.1658 3.09731 7.29029 2.89879 7.44003 2.71997ZM8.90003 6.58997C8.2497 6.38695 7.57899 6.25617 6.90003 6.19997C6.26462 6.15181 5.62563 6.1888 5.00003 6.30997C5.09718 6.04643 5.21765 5.79209 5.36003 5.54997C5.47783 5.32113 5.65814 5.13041 5.88003 4.99997C6.21214 4.84823 6.57515 4.77631 6.94003 4.78997C7.54764 4.79536 8.15224 4.87598 8.74003 5.02997C9.38993 5.08441 10.0027 5.35558 10.48 5.79997C10.7786 6.2282 10.9069 6.75226 10.84 7.26997C10.2 7.04997 9.56003 6.78997 8.90003 6.58997ZM12.76 4.74997C12.3493 4.83588 11.9288 4.86615 11.51 4.83997C11.6704 4.2327 11.6425 3.59104 11.43 2.99997L11.95 3.15997C12.2989 3.25213 12.6188 3.431 12.88 3.67997C12.88 3.67997 13 4.65997 12.76 4.74997Z" fill="black"/>
<path d="M14.84 4.91C15.24 5.18 15.61 5.45 16.03 5.68C16.21 5.77754 16.3972 5.86112 16.59 5.93C16.7835 5.99719 16.9804 6.05394 17.18 6.1C17.6579 6.1944 18.143 6.24793 18.63 6.26C18.7149 6.27326 18.8015 6.25227 18.8709 6.20163C18.9403 6.151 18.9867 6.07487 19 5.99C19.0133 5.90513 18.9923 5.81847 18.9416 5.74908C18.891 5.67969 18.8149 5.63326 18.73 5.62C18.28 5.48 17.88 5.28 17.46 5.11C17.1826 4.98535 16.8989 4.87521 16.61 4.78C16.1 4.61 15.61 4.53 15.07 4.39C15.0009 4.35916 14.9225 4.35653 14.8515 4.38269C14.7805 4.40884 14.7226 4.46171 14.69 4.53C14.6624 4.60058 14.6625 4.67899 14.6903 4.74948C14.7182 4.81997 14.7716 4.87732 14.84 4.91Z" fill="black"/>
<path d="M17.33 9.10997C17.387 9.04888 17.4186 8.96848 17.4186 8.88497C17.4186 8.80146 17.387 8.72106 17.33 8.65997C17.0788 8.23887 16.8051 7.83161 16.51 7.43997C16.3913 7.28367 16.2609 7.13659 16.12 6.99997C15.9574 6.85331 15.7835 6.71957 15.6 6.59997C15.1651 6.32591 14.6891 6.12334 14.19 5.99997C14.1565 5.98421 14.1203 5.9752 14.0833 5.97346C14.0463 5.97171 14.0094 5.97727 13.9746 5.9898C13.9398 6.00234 13.9077 6.02161 13.8804 6.04652C13.853 6.07143 13.8308 6.10148 13.815 6.13497C13.7993 6.16846 13.7903 6.20472 13.7885 6.24169C13.7868 6.27866 13.7923 6.31561 13.8049 6.35043C13.8174 6.38525 13.8367 6.41726 13.8616 6.44464C13.8865 6.47201 13.9165 6.49421 13.95 6.50997C14.1633 6.65699 14.367 6.8173 14.56 6.98997C14.7109 7.1291 14.8544 7.27596 14.99 7.42997L15.44 7.83997C15.91 8.23997 16.44 8.62997 16.87 9.08997C16.8985 9.12215 16.9332 9.14827 16.972 9.16676C17.0107 9.18526 17.0529 9.19575 17.0958 9.19762C17.1387 9.19948 17.1816 9.19268 17.2218 9.17762C17.2621 9.16257 17.2989 9.13956 17.33 9.10997Z" fill="black"/>
<path d="M8.86003 13.79C8.77003 14.06 8.69003 14.33 8.62003 14.61C8.53993 14.892 8.47978 15.1794 8.44003 15.47V15.57L7.50003 15.52C6.95654 15.4802 6.4157 15.4101 5.88003 15.31C5.00003 15.16 4.23003 15 3.41003 14.79C3.36935 14.776 3.32629 14.7704 3.2834 14.7735C3.24052 14.7766 3.19869 14.7883 3.16042 14.8079C3.12215 14.8275 3.08823 14.8546 3.06067 14.8876C3.03311 14.9206 3.01249 14.9588 3.00003 15C2.98965 15.0413 2.98765 15.0844 2.99415 15.1266C3.00066 15.1687 3.01552 15.2092 3.03789 15.2455C3.06025 15.2818 3.08965 15.3133 3.12437 15.3382C3.15908 15.363 3.19841 15.3806 3.24003 15.39C4.05003 15.62 4.85003 15.87 5.67003 16.08C6.22902 16.2288 6.7968 16.3423 7.37003 16.42C7.58003 16.42 8.06003 16.55 8.44003 16.57C8.68004 16.5979 8.92303 16.5563 9.14003 16.45C9.20711 16.4114 9.26564 16.3596 9.31206 16.2977C9.35848 16.2358 9.39181 16.1651 9.41003 16.09C9.41003 15.96 9.46003 15.64 9.47003 15.61L9.87003 14.11C9.98003 13.77 10.12 13.43 10.22 13.11C10.3033 12.8518 10.3668 12.5877 10.41 12.32C10.4459 12.1118 10.4659 11.9012 10.47 11.69C10.4711 11.515 10.4109 11.3452 10.3 11.21C10.2258 11.1089 10.1204 11.0351 10 11H9.60003H8.48003C7.6483 10.9321 6.82056 10.822 6.00003 10.67C5.45684 10.5712 4.92439 10.4205 4.41003 10.22C4.34094 10.1891 4.26254 10.1865 4.19154 10.2126C4.12055 10.2388 4.06259 10.2917 4.03003 10.36C4.01517 10.3947 4.00752 10.4321 4.00752 10.47C4.00752 10.5078 4.01517 10.5452 4.03003 10.58C3.81117 10.9326 3.61736 11.3002 3.45003 11.68C3.3703 11.8675 3.30674 12.0616 3.26003 12.26C3.26003 12.46 3.18003 12.66 3.15003 12.86C3.10502 13.3456 3.10502 13.8343 3.15003 14.32C3.14869 14.362 3.15566 14.4039 3.17052 14.4432C3.18538 14.4825 3.20785 14.5186 3.23664 14.5492C3.26543 14.5799 3.29997 14.6045 3.33831 14.6218C3.37664 14.6391 3.418 14.6487 3.46003 14.65C3.50207 14.6527 3.54423 14.6471 3.5841 14.6334C3.62396 14.6198 3.66074 14.5984 3.69233 14.5706C3.72392 14.5427 3.7497 14.5089 3.76818 14.471C3.78666 14.4331 3.79748 14.392 3.80003 14.35C3.88749 13.8938 4.00101 13.4431 4.14003 13C4.22003 12.71 4.31003 12.42 4.38003 12.12C4.45003 11.82 4.51003 11.29 4.58003 10.88C4.9778 11.0502 5.38516 11.1971 5.80003 11.32C6.62003 11.55 7.46003 11.7 8.35003 11.87L9.35003 12C9.35377 12.0365 9.35377 12.0734 9.35003 12.11C9.30732 12.3192 9.25392 12.5262 9.19003 12.73C9.10003 13.12 9.00003 13.45 8.86003 13.79Z" fill="black"/>
<path d="M23.87 7.77995C23.7978 7.55724 23.6897 7.34782 23.55 7.15995L23.42 6.99995C23.6098 6.43889 23.6098 5.83101 23.42 5.26995C23.2844 4.7309 22.948 4.26402 22.4796 3.96476C22.0112 3.66549 21.4461 3.55646 20.9 3.65995C20.7282 3.68595 20.5603 3.73297 20.4 3.79995C20.241 3.86603 20.0901 3.9499 19.95 4.04995C19.9191 4.07031 19.8926 4.09654 19.8719 4.12716C19.8512 4.15777 19.8367 4.19217 19.8292 4.22838C19.8218 4.2646 19.8216 4.30192 19.8286 4.33822C19.8356 4.37452 19.8497 4.40909 19.87 4.43995C19.8904 4.47081 19.9166 4.49736 19.9472 4.51808C19.9778 4.5388 20.0122 4.55329 20.0484 4.56072C20.0847 4.56815 20.122 4.56837 20.1583 4.56138C20.1946 4.55438 20.2291 4.54031 20.26 4.51995C20.3725 4.4522 20.4894 4.39207 20.61 4.33995C20.7359 4.29018 20.8666 4.25332 21 4.22995C21.3922 4.17671 21.7898 4.2755 22.1115 4.50605C22.4332 4.73661 22.6544 5.08147 22.73 5.46995C22.8119 5.75592 22.829 6.05655 22.78 6.34995C22.7307 6.30768 22.6771 6.27081 22.62 6.23995C22.4279 6.11226 22.2193 6.01134 22 5.93995C21.7821 5.87415 21.5572 5.83388 21.33 5.81995C21.0907 5.81134 20.8514 5.8383 20.62 5.89995C20.4403 5.93792 20.2704 6.0127 20.121 6.11958C19.9716 6.22646 19.846 6.36312 19.7521 6.52095C19.6581 6.67878 19.5979 6.85436 19.5752 7.03662C19.5524 7.21888 19.5677 7.40388 19.62 7.57995C19.7076 7.92163 19.9185 8.21886 20.212 8.41453C20.5054 8.61019 20.8609 8.69048 21.21 8.63995C21.4359 8.62085 21.658 8.57037 21.87 8.48995C22.0881 8.41998 22.2965 8.32253 22.49 8.19995C22.5894 8.14223 22.6832 8.07526 22.77 7.99995C22.8008 8.05803 22.8275 8.11817 22.85 8.17995C22.9149 8.42282 22.9068 8.6794 22.8268 8.9177C22.7467 9.156 22.5983 9.36546 22.4 9.51995C22.144 9.76609 21.8544 9.97482 21.54 10.14C21.4398 9.92276 21.3047 9.72345 21.14 9.54995C20.9948 9.38025 20.813 9.24563 20.6083 9.15617C20.4037 9.06671 20.1814 9.02474 19.9582 9.0334C19.735 9.04206 19.5167 9.10112 19.3196 9.20617C19.1224 9.31121 18.9517 9.45951 18.82 9.63995C18.6971 9.79321 18.6221 9.97927 18.6044 10.1749C18.5866 10.3705 18.6268 10.567 18.72 10.74C18.9074 11.1025 19.2311 11.3759 19.62 11.5C20.0226 11.6101 20.4474 11.6101 20.85 11.5C20.7527 11.7794 20.5946 12.0338 20.3871 12.2448C20.1796 12.4557 19.9278 12.618 19.65 12.72C19.2993 12.8916 18.9108 12.9715 18.5208 12.9523C18.1309 12.933 17.7521 12.8153 17.42 12.61C17.2513 12.4914 17.094 12.3575 16.95 12.21C16.8355 12.1006 16.7526 11.9624 16.71 11.81C16.7051 11.7678 16.6918 11.727 16.671 11.6901C16.6501 11.6531 16.6221 11.6206 16.5886 11.5946C16.5551 11.5685 16.5168 11.5494 16.4758 11.5383C16.4348 11.5272 16.3921 11.5244 16.35 11.53C16.264 11.5424 16.1864 11.5882 16.134 11.6574C16.0816 11.7267 16.0586 11.8138 16.07 11.9C16.1115 12.1342 16.2113 12.3543 16.36 12.54C16.5469 12.7688 16.7582 12.9767 16.99 13.16C17.4249 13.4577 17.9281 13.6405 18.4527 13.6912C18.9773 13.7419 19.5062 13.6589 19.99 13.45C20.4821 13.2927 20.9176 12.9949 21.2427 12.5934C21.5678 12.1919 21.7685 11.704 21.82 11.1899C22.4768 10.8895 23.0527 10.4371 23.5 9.86995C23.7381 9.58385 23.8975 9.24058 23.9624 8.87405C24.0273 8.50753 23.9954 8.13041 23.87 7.77995ZM22 7.45995C21.8594 7.54355 21.708 7.60748 21.55 7.64995C21.3944 7.70005 21.2332 7.73029 21.07 7.73995C20.944 7.75296 20.8175 7.7195 20.7144 7.64584C20.6113 7.57218 20.5386 7.46341 20.51 7.33995C20.5015 7.28848 20.5038 7.23581 20.5166 7.18524C20.5293 7.13467 20.5524 7.08726 20.5843 7.04599C20.6162 7.00471 20.6562 6.97044 20.702 6.94532C20.7477 6.92019 20.7981 6.90475 20.85 6.89995C20.9792 6.87971 21.1108 6.87971 21.24 6.89995C21.3761 6.91017 21.5104 6.93704 21.64 6.97995C21.7715 7.02154 21.8961 7.08218 22.01 7.15995C22.09 7.21132 22.1638 7.27172 22.23 7.33995C22.1575 7.38752 22.0805 7.42772 22 7.45995ZM20 10.46C19.9114 10.4501 19.8264 10.4197 19.7517 10.3711C19.677 10.3224 19.6148 10.257 19.57 10.18C19.57 10.12 19.63 10.08 19.68 10.04C19.7806 9.99609 19.8917 9.9822 20 9.99995C20.1135 10.0045 20.2243 10.0359 20.3234 10.0915C20.4225 10.1472 20.507 10.2254 20.57 10.32C20.6123 10.3692 20.6491 10.4228 20.68 10.4799C20.4724 10.5199 20.2597 10.5266 20.05 10.5L20 10.46Z" fill="black"/>
</g>
<defs>
<clipPath id="clip0_1048_7036">
<rect width="24" height="24" fill="white"/>
</clipPath>
</defs>
</svg>
