<svg width="24" height="24" viewBox="0 0 24 24" fill="none" xmlns="http://www.w3.org/2000/svg">
<g clip-path="url(#clip0_1030_2201)">
<path fill-rule="evenodd" clip-rule="evenodd" d="M6.19001 19.91L4.79001 19C4.3061 18.6753 3.84502 18.3178 3.41001 17.93C2.96596 17.5489 2.5452 17.1415 2.15001 16.71C1.94692 16.5232 1.75334 16.3263 1.57001 16.12C1.18001 15.66 1.29001 15.71 1.48001 15.52C1.64211 15.3358 1.8158 15.1621 2.00001 15L4.50001 12.41L5.29001 11.66C5.38018 11.66 5.46666 11.6242 5.53043 11.5604C5.59419 11.4967 5.63001 11.4102 5.63001 11.32C5.63001 11.2298 5.59419 11.1434 5.53043 11.0796C5.46666 11.0158 5.38018 10.98 5.29001 10.98C5.13784 10.9854 4.98968 11.0302 4.86001 11.11C4.54079 11.3146 4.23668 11.5419 3.95001 11.79L1.15001 14.08C0.793647 14.336 0.479804 14.6464 0.22001 15C0.0453777 15.2618 -0.0291672 15.5778 0.0100101 15.89C0.065001 16.1529 0.173967 16.4015 0.33001 16.62C0.598581 16.9834 0.90349 17.3185 1.24001 17.62C1.70082 18.0496 2.18488 18.4535 2.69001 18.83C3.20399 19.1986 3.74183 19.5326 4.30001 19.83C6.39001 20.98 6.22001 21.21 6.53001 20.9C6.60801 20.8291 6.65798 20.7326 6.67082 20.628C6.68367 20.5234 6.65854 20.4177 6.60001 20.33C6.48474 20.1706 6.34659 20.0291 6.19001 19.91Z" fill="black"/>
<path fill-rule="evenodd" clip-rule="evenodd" d="M23.7 7.69C23.3569 6.67756 22.759 5.77044 21.9639 5.0559C21.1688 4.34135 20.2032 3.84342 19.16 3.61C18.3365 3.42722 17.5011 3.30357 16.66 3.24C15.08 3.09 13.36 3 13 3C12.8966 3 12.7974 3.04109 12.7242 3.11423C12.6511 3.18737 12.61 3.28657 12.61 3.39C12.6086 3.44159 12.6178 3.49292 12.6369 3.54086C12.656 3.5888 12.6847 3.63234 12.7212 3.66884C12.7576 3.70533 12.8012 3.73401 12.8491 3.75312C12.8971 3.77223 12.9484 3.78138 13 3.78C13.39 3.78 15.06 3.92 16.6 4.12C17.3816 4.20976 18.1565 4.35006 18.92 4.54C19.7691 4.7633 20.548 5.19757 21.1844 5.80247C21.8208 6.40737 22.294 7.16328 22.56 8C22.8018 8.853 22.8372 9.75128 22.6633 10.6207C22.4894 11.49 22.1112 12.3056 21.56 13C21.0592 13.6137 20.4315 14.1118 19.72 14.46C18.9729 14.8368 18.1887 15.135 17.38 15.35C16.2002 15.6895 14.9918 15.9205 13.77 16.04C12.5342 16.1655 11.2913 16.2056 10.05 16.16C8.99999 16.16 5.62999 15.77 4.20999 15.59L3.63999 15.51C3.5534 15.475 3.45658 15.475 3.36999 15.51C3.36999 15.51 3.04999 16.07 3.51999 16.17L4.11999 16.27C5.54999 16.51 8.93999 17.02 10.01 17.1C11.2939 17.2063 12.5837 17.223 13.87 17.15C15.1685 17.0695 16.457 16.872 17.72 16.56C18.8095 16.294 19.8564 15.8766 20.83 15.32C21.5145 14.9225 22.1156 14.3961 22.6 13.77C23.2519 12.9162 23.6916 11.9197 23.8828 10.8626C24.0741 9.80551 24.0114 8.71811 23.7 7.69Z" fill="black"/>
</g>
<defs>
<clipPath id="clip0_1030_2201">
<rect width="24" height="24" fill="white"/>
</clipPath>
</defs>
</svg>
