<svg width="24" height="24" viewBox="0 0 24 24" fill="none" xmlns="http://www.w3.org/2000/svg">
<g clip-path="url(#clip0_1030_2891)">
<path d="M16.24 8C16.0729 7.00311 15.6451 6.06815 15 5.29C14.81 5.06 14.6 4.79 14.37 4.56C14.2064 4.38035 14.0094 4.23429 13.79 4.13C13.7091 4.08889 13.6152 4.0816 13.5289 4.10973C13.4426 4.13786 13.3711 4.19911 13.33 4.28C13.2889 4.36089 13.2816 4.4548 13.3097 4.54107C13.3378 4.62733 13.3991 4.69889 13.48 4.74C13.6248 4.82313 13.7563 4.92764 13.87 5.05C14.0656 5.27345 14.2492 5.50711 14.42 5.75C14.9536 6.4245 15.2987 7.22853 15.42 8.08C15.5248 8.94 15.4464 9.81245 15.19 10.64C14.8117 11.9174 13.9841 13.0149 12.86 13.73C11.7403 14.4442 10.4266 14.7936 9.09998 14.73C8.62711 14.7182 8.15724 14.6511 7.69998 14.53C7.27431 14.4274 6.87101 14.2478 6.50998 14C5.82116 13.4742 5.27179 12.7874 4.90998 12C4.53711 11.2224 4.37832 10.3594 4.44998 9.5C4.52108 8.90987 4.67948 8.33357 4.91998 7.79C5.16852 7.23128 5.46636 6.69583 5.80998 6.19C6.0814 5.78931 6.39301 5.41738 6.73998 5.08C7.06591 4.74866 7.45307 4.48375 7.87998 4.3C8.48078 4.09062 9.11384 3.98906 9.74998 4C10.7604 3.99634 11.7676 4.11385 12.75 4.35C12.7887 4.35919 12.8289 4.36066 12.8682 4.35433C12.9075 4.348 12.9452 4.33399 12.9791 4.31309C13.013 4.2922 13.0424 4.26484 13.0657 4.23256C13.0891 4.20029 13.1058 4.16374 13.115 4.125C13.1242 4.08626 13.1256 4.04609 13.1193 4.00678C13.113 3.96747 13.099 3.92979 13.0781 3.8959C13.0572 3.86201 13.0298 3.83256 12.9975 3.80924C12.9653 3.78593 12.9287 3.76919 12.89 3.76C11.8785 3.48166 10.8383 3.3206 9.78998 3.28C9.06042 3.25166 8.33182 3.35672 7.63998 3.59C7.20719 3.7374 6.80419 3.96091 6.44998 4.25C5.92922 4.64878 5.46499 5.11638 5.06998 5.64C4.65544 6.1788 4.29692 6.75846 3.99998 7.37C3.69802 8.00331 3.48919 8.67694 3.37998 9.37C3.25397 10.432 3.42353 11.5082 3.86998 12.48C4.31978 13.4548 5.00755 14.3007 5.86998 14.94C6.34747 15.2888 6.88712 15.5434 7.45998 15.69C8.00479 15.8365 8.56587 15.9137 9.12998 15.92C10.6878 15.9511 12.2161 15.4929 13.5 14.61C14.7975 13.7308 15.7292 12.4079 16.12 10.89C16.3607 9.94553 16.4016 8.96118 16.24 8Z" fill="black"/>
<path d="M23.23 20.58C23.1853 20.3627 23.1251 20.1488 23.05 19.94C22.9119 19.5857 22.7305 19.2498 22.51 18.94C22.206 18.5007 21.8719 18.083 21.51 17.69C20.9857 17.1103 20.4173 16.572 19.81 16.08C18.98 15.4 18.11 14.77 17.23 14.08C17.4977 13.5758 17.7154 13.0466 17.88 12.5C18.1282 11.6816 18.3153 10.846 18.44 10C18.5919 9.18556 18.6655 8.35846 18.66 7.53C18.6423 6.95265 18.5448 6.38054 18.37 5.83C18.2088 5.33443 18.015 4.85004 17.79 4.38C17.637 4.04781 17.4493 3.73273 17.23 3.44C16.8513 2.94515 16.4033 2.50734 15.9 2.14C15.1663 1.62218 14.3742 1.19256 13.54 0.859999C12.9531 0.605479 12.3481 0.3949 11.73 0.229999C11.0775 0.0595239 10.4042 -0.017908 9.72999 -8.40286e-07C8.90372 0.0442478 8.08839 0.209335 7.30999 0.489999C6.53852 0.769163 5.7952 1.12073 5.08999 1.54C4.48889 1.88012 3.92282 2.27872 3.39999 2.73C-0.840006 6.53 1.15999 13.08 1.21999 13.21C1.34162 13.5118 1.48189 13.8057 1.63999 14.09C1.86999 14.49 2.12999 14.88 2.38999 15.27C2.89781 16.0412 3.51799 16.7321 4.22999 17.32C4.72896 17.7166 5.29441 18.0213 5.89999 18.22C6.592 18.4436 7.30099 18.6108 8.01999 18.72C8.51546 18.8025 9.01822 18.8326 9.51999 18.81C10.2924 18.761 11.0553 18.6131 11.79 18.37C12.5099 18.1191 13.2088 17.8115 13.88 17.45C14.01 17.61 14.14 17.78 14.26 17.95C14.68 18.61 15.03 19.32 15.43 19.95C15.7044 20.387 16.0085 20.8046 16.34 21.2C16.6531 21.591 16.9869 21.9648 17.34 22.32C18.3113 23.2248 19.5361 23.811 20.85 24C21.113 24.0486 21.3832 24.044 21.6444 23.9864C21.9056 23.9288 22.1527 23.8193 22.3708 23.6646C22.589 23.5098 22.7739 23.3128 22.9146 23.0853C23.0553 22.8578 23.149 22.6043 23.19 22.34C23.2305 22.1653 23.2606 21.9883 23.28 21.81C23.2948 21.6336 23.2948 21.4564 23.28 21.28C23.2847 21.0456 23.268 20.8113 23.23 20.58ZM22.07 22.05C22.019 22.3056 21.8703 22.5311 21.6555 22.6787C21.4407 22.8262 21.1768 22.8841 20.92 22.84C19.873 22.7045 18.8871 22.2706 18.08 21.59C17.73 21.29 17.38 20.95 17.08 20.59C16.7515 20.2484 16.4474 19.8842 16.17 19.5C15.72 18.88 15.33 18.18 14.86 17.56C14.7409 17.3977 14.6106 17.244 14.47 17.1L14.61 17.01C14.8295 16.8486 15.0399 16.675 15.24 16.49C15.2905 16.4226 15.3151 16.3392 15.3091 16.2552C15.3031 16.1712 15.2671 16.0921 15.2075 16.0325C15.1479 15.9729 15.0688 15.9369 14.9848 15.9309C14.9008 15.9249 14.8174 15.9494 14.75 16C14.5784 16.1577 14.3945 16.3015 14.2 16.43C14.008 16.5659 13.8076 16.6895 13.6 16.8C12.9546 17.1282 12.2862 17.4089 11.6 17.64C10.9084 17.8508 10.1925 17.9718 9.46999 18C8.91522 18.0084 8.3614 17.9513 7.81999 17.83C7.26403 17.7162 6.71618 17.5659 6.17999 17.38C5.55585 17.151 4.98686 16.7932 4.50999 16.33C4.01499 15.8462 3.57865 15.3058 3.20999 14.72C2.96443 14.3585 2.73747 13.9847 2.52999 13.6C2.39589 13.3536 2.2757 13.0999 2.16999 12.84C1.79398 11.7866 1.65734 10.6628 1.76999 9.55C1.76999 9.11 1.76999 5.31 4.39999 3.4C4.81999 3.1 5.23999 2.8 5.67999 2.54C6.31186 2.14119 6.98182 1.80621 7.67999 1.54C8.36223 1.29827 9.07682 1.16008 9.79999 1.13C10.3622 1.11397 10.9241 1.17452 11.47 1.31C12.0399 1.44604 12.5983 1.62659 13.14 1.85C13.7859 2.0891 14.4085 2.38702 15 2.74C15.5623 3.07152 16.063 3.4978 16.48 4C16.6662 4.23782 16.8302 4.49222 16.97 4.76C17.1838 5.19143 17.3708 5.6356 17.53 6.09C17.6982 6.55278 17.7959 7.03819 17.82 7.53C17.8476 8.30935 17.8007 9.08956 17.68 9.86C17.5909 10.5333 17.4641 11.201 17.3 11.86C17.1377 12.5191 16.9065 13.1593 16.61 13.77C16.4413 14.1171 16.2475 14.4513 16.03 14.77C15.8153 15.0738 15.5744 15.3583 15.31 15.62C15.2813 15.648 15.2584 15.6814 15.2428 15.7183C15.2273 15.7552 15.2192 15.7949 15.2192 15.835C15.2192 15.8751 15.2273 15.9148 15.2428 15.9517C15.2584 15.9886 15.2813 16.022 15.31 16.05C15.3678 16.1056 15.4448 16.1367 15.525 16.1367C15.6052 16.1367 15.6822 16.1056 15.74 16.05C16.0339 15.7653 16.3048 15.4576 16.55 15.13C16.66 14.98 16.74 14.82 16.84 14.66C17.66 15.34 18.47 15.98 19.23 16.66C19.7792 17.1512 20.2875 17.6863 20.75 18.26C21.0669 18.6327 21.3576 19.027 21.62 19.44C21.7787 19.6938 21.9063 19.9657 22 20.25C22.0505 20.414 22.0906 20.581 22.12 20.75C22.1349 20.9097 22.1349 21.0703 22.12 21.23L22.07 22.05Z" fill="black"/>
<path d="M13.22 9.5C13.3015 9.48131 13.3735 9.4341 13.4232 9.36689C13.4729 9.29968 13.4969 9.21692 13.4908 9.13356C13.4848 9.05021 13.4491 8.97176 13.3903 8.91242C13.3314 8.85307 13.2533 8.81674 13.17 8.81C12.36 8.81 11.53 8.75 10.7 8.76H10.15C10.15 8.63 10.15 8.5 10.1 8.36C9.99 7.61 9.8 6.89 9.65 6.15C9.64625 6.11053 9.63471 6.07219 9.61606 6.0372C9.5974 6.00222 9.572 5.97128 9.54131 5.94617C9.51062 5.92106 9.47526 5.90229 9.43728 5.89093C9.39929 5.87957 9.35943 5.87586 9.32 5.88C9.28001 5.88237 9.24094 5.893 9.20526 5.91122C9.16959 5.92943 9.13807 5.95485 9.1127 5.98585C9.08734 6.01686 9.06867 6.05278 9.05788 6.09136C9.04708 6.12994 9.0444 6.17033 9.05 6.21C9 7 9 7.72 9 8.48V8.87C8.08205 9.01587 7.17622 9.22979 6.29 9.51C6.22208 9.53565 6.16532 9.58433 6.12962 9.64754C6.09392 9.71075 6.08153 9.78449 6.09462 9.8559C6.10771 9.92731 6.14545 9.99186 6.20126 10.0383C6.25706 10.0847 6.3274 10.1101 6.4 10.11C7.21 10 8 10.05 8.8 10H9.12V10.38C9.21 11.12 9.34 11.85 9.43 12.59C9.43129 12.6347 9.44137 12.6786 9.45966 12.7194C9.47796 12.7601 9.5041 12.7969 9.53661 12.8275C9.56911 12.8582 9.60734 12.8821 9.6491 12.898C9.69086 12.9139 9.73534 12.9213 9.78 12.92C9.87108 12.9174 9.95755 12.8794 10.021 12.814C10.0845 12.7487 10.12 12.6611 10.12 12.57C10.12 11.82 10.2 11.07 10.2 10.31V9.91L10.81 9.85C11.64 9.75 12.44 9.62 13.22 9.5Z" fill="black"/>
</g>
<defs>
<clipPath id="clip0_1030_2891">
<rect width="24" height="24" fill="white"/>
</clipPath>
</defs>
</svg>
