<svg width="24" height="24" viewBox="0 0 24 24" fill="none" xmlns="http://www.w3.org/2000/svg">
<g clip-path="url(#clip0_1030_2896)">
<path d="M16.2 7.86C16.0363 6.88463 15.6229 5.96825 15 5.2C14.81 4.97 14.61 4.7 14.38 4.47C14.2003 4.28066 13.9909 4.1219 13.76 4C13.6761 3.96124 13.5805 3.95623 13.493 3.98602C13.4055 4.0158 13.3328 4.0781 13.29 4.16C13.251 4.24124 13.2448 4.3344 13.2727 4.42009C13.3007 4.50578 13.3606 4.57739 13.44 4.62C13.587 4.69989 13.719 4.80479 13.83 4.93C14.0284 5.14755 14.2122 5.37806 14.38 5.62C14.9211 6.3112 15.2726 7.1315 15.4 8C15.5013 8.86071 15.4195 9.73311 15.16 10.56C14.7792 11.8362 13.9523 12.9329 12.83 13.65C11.7103 14.3642 10.3966 14.7136 9.07001 14.65C8.60086 14.6332 8.13487 14.5661 7.68001 14.45C7.24412 14.3386 6.83346 14.1452 6.47001 13.88C6.12001 13.62 2.47001 10.76 5.78001 6.06C6.05337 5.67908 6.36135 5.32424 6.70001 5C7.02982 4.67845 7.41634 4.42077 7.84001 4.24C8.43896 4.02041 9.07208 3.90868 9.71001 3.91C10.7204 3.90634 11.7276 4.02385 12.71 4.26C12.7488 4.26985 12.7891 4.27197 12.8286 4.26625C12.8682 4.26052 12.9062 4.24706 12.9406 4.22663C12.9749 4.2062 13.0049 4.1792 13.0289 4.14718C13.0528 4.11516 13.0702 4.07874 13.08 4.04C13.0899 4.00126 13.092 3.96096 13.0863 3.9214C13.0805 3.88184 13.0671 3.84379 13.0466 3.80944C13.0262 3.77508 12.9992 3.74508 12.9672 3.72116C12.9352 3.69723 12.8988 3.67985 12.86 3.67C11.8451 3.39168 10.8016 3.23063 9.75001 3.19C9.02133 3.16382 8.29369 3.26535 7.60001 3.49C7.17282 3.64979 6.77176 3.87222 6.41001 4.15C4.41001 5.68 0.870012 11.15 5.82001 14.87C6.29861 15.217 6.83788 15.4713 7.41001 15.62C7.93014 15.7498 8.46393 15.817 9.00001 15.82C10.5578 15.8511 12.0862 15.3929 13.37 14.51C14.6713 13.6325 15.6067 12.3094 16 10.79C16.2825 9.84014 16.3509 8.83944 16.2 7.86Z" fill="black"/>
<path d="M23.24 20.58C23.2 20.3615 23.1397 20.1473 23.06 19.94C22.9258 19.5839 22.7442 19.2475 22.52 18.94C22.2162 18.5006 21.882 18.0829 21.52 17.69C20.9908 17.1151 20.4228 16.5772 19.82 16.08C18.99 15.4 18.12 14.77 17.24 14.08C17.5001 13.5722 17.7175 13.0438 17.89 12.5C18.1383 11.6817 18.3255 10.846 18.45 10C18.607 9.18628 18.6808 8.35867 18.67 7.53C18.6622 6.95171 18.5643 6.37817 18.38 5.83C18.2222 5.33461 18.0318 4.85021 17.81 4.38C17.6536 4.04751 17.4625 3.73244 17.24 3.44C16.8614 2.95133 16.4172 2.51724 15.92 2.15C15.1833 1.62864 14.3878 1.19567 13.55 0.859999C12.9665 0.605533 12.3648 0.394948 11.75 0.229999C11.0973 0.0604377 10.4241 -0.0169793 9.75 -5.35045e-07C8.92059 0.0451237 8.10209 0.210171 7.32001 0.489999C6.55162 0.768909 5.8116 1.1205 5.11001 1.54C-2.10999 5.81 0.480005 16.45 5.92001 18.22C6.61144 18.4457 7.3206 18.6129 8.04001 18.72C8.53211 18.8024 9.03155 18.8326 9.53 18.81C10.3055 18.7599 11.0716 18.6121 11.81 18.37C12.5266 18.1189 13.2221 17.8113 13.89 17.45C14.0253 17.6099 14.1522 17.7768 14.27 17.95C14.7 18.61 15.04 19.32 15.44 19.95C15.7211 20.3824 16.0249 20.7996 16.35 21.2C16.69 21.6 17.04 21.98 17.35 22.32C18.3252 23.225 19.5531 23.8111 20.87 24C21.1323 24.0472 21.4014 24.0414 21.6615 23.9831C21.9216 23.9248 22.1674 23.8151 22.3844 23.6604C22.6015 23.5058 22.7855 23.3093 22.9255 23.0826C23.0656 22.8558 23.1589 22.6033 23.2 22.34C23.2405 22.1653 23.2706 21.9883 23.29 21.81C23.2997 21.6335 23.2997 21.4565 23.29 21.28C23.2948 21.0456 23.2781 20.8113 23.24 20.58ZM22.08 22.05C22.029 22.3035 21.8818 22.5275 21.6692 22.6748C21.4567 22.8221 21.1953 22.8813 20.94 22.84C19.893 22.7045 18.9071 22.2706 18.1 21.59C17.7497 21.274 17.416 20.9403 17.1 20.59C16.7683 20.2485 16.4609 19.8843 16.18 19.5C15.74 18.88 15.34 18.18 14.88 17.56C14.7579 17.4001 14.6278 17.2466 14.49 17.1L14.62 17.01C14.8416 16.8512 15.0521 16.6774 15.25 16.49C15.3006 16.4226 15.3251 16.3392 15.3191 16.2552C15.3132 16.1712 15.2771 16.0921 15.2175 16.0325C15.1579 15.9729 15.0789 15.9369 14.9948 15.9309C14.9108 15.9249 14.8274 15.9494 14.76 16C14.592 16.1577 14.4114 16.3015 14.22 16.43C14.028 16.5659 13.8276 16.6895 13.62 16.8C12.9738 17.1264 12.3055 17.4071 11.62 17.64C10.9374 17.844 10.2319 17.9616 9.52001 17.99C8.96852 17.9988 8.41796 17.9417 7.88001 17.82C7.32338 17.709 6.77534 17.5586 6.24001 17.37C1.56001 15.76 -0.609995 6.26 5.70001 2.54C6.33097 2.1396 7.0011 1.80453 7.70001 1.54C8.37666 1.28458 9.08802 1.13287 9.81001 1.09C10.3722 1.07446 10.934 1.13501 11.48 1.27C12.0467 1.4061 12.6017 1.58666 13.14 1.81C13.7874 2.06191 14.41 2.37324 15 2.74C15.5677 3.06801 16.0723 3.4947 16.49 4C16.6797 4.23536 16.8439 4.49011 16.98 4.76C17.2012 5.18932 17.3916 5.63377 17.55 6.09C17.7134 6.55411 17.811 7.03882 17.84 7.53C17.8592 8.30958 17.809 9.08932 17.69 9.86C17.6057 10.534 17.4788 11.202 17.31 11.86C17.1568 12.5218 16.9252 13.163 16.62 13.77C16.4589 14.119 16.2682 14.4536 16.05 14.77C15.8353 15.0738 15.5944 15.3583 15.33 15.62C15.3011 15.6476 15.2779 15.6806 15.2618 15.7171C15.2457 15.7536 15.2369 15.793 15.2359 15.8329C15.2341 15.9136 15.2643 15.9917 15.32 16.05C15.3757 16.1083 15.4523 16.1422 15.5329 16.1441C15.6136 16.1459 15.6917 16.1157 15.75 16.06C16.0439 15.7753 16.3148 15.4676 16.56 15.14C16.67 14.99 16.76 14.83 16.86 14.67C17.67 15.35 18.48 15.99 19.24 16.67C19.7892 17.1612 20.2976 17.6963 20.76 18.27C21.0802 18.6425 21.3743 19.0368 21.64 19.45C21.7987 19.7038 21.9263 19.9757 22.02 20.26C22.072 20.4229 22.1088 20.5903 22.13 20.76C22.1615 20.9181 22.1782 21.0788 22.18 21.24L22.08 22.05Z" fill="black"/>
<path d="M9.00002 8.78C8.07458 8.92109 7.16174 9.13509 6.27002 9.42C6.22861 9.42355 6.18839 9.43566 6.15191 9.45557C6.11543 9.47548 6.08349 9.50276 6.0581 9.53566C6.03272 9.56857 6.01445 9.60639 6.00445 9.64673C5.99445 9.68707 5.99294 9.72905 6.00002 9.77C6.00575 9.81044 6.01996 9.84922 6.04172 9.88379C6.06348 9.91836 6.0923 9.94794 6.12629 9.9706C6.16027 9.99326 6.19866 10.0085 6.23894 10.0153C6.27922 10.0221 6.32048 10.0203 6.36002 10.01C7.14002 9.94 7.93002 10.01 8.73002 9.93L9.73002 9.87L10.73 9.76C11.54 9.66 12.33 9.53 13.12 9.4C13.1743 9.41262 13.231 9.41083 13.2844 9.39482C13.3378 9.3788 13.386 9.34912 13.4244 9.3087C13.4628 9.26829 13.49 9.21854 13.5033 9.1644C13.5165 9.11025 13.5154 9.05358 13.5 9C13.4975 8.95532 13.4861 8.91159 13.4666 8.87131C13.4471 8.83103 13.4199 8.79499 13.3865 8.76526C13.353 8.73553 13.314 8.71269 13.2717 8.69806C13.2294 8.68343 13.1847 8.67729 13.14 8.68C12.32 8.68 11.49 8.62 10.66 8.63C10.1041 8.64471 9.54961 8.69481 9.00002 8.78Z" fill="black"/>
</g>
<defs>
<clipPath id="clip0_1030_2896">
<rect width="24" height="24" fill="white"/>
</clipPath>
</defs>
</svg>
